<svg width="2158" height="872" viewBox="0 0 2158 872" fill="none" xmlns="http://www.w3.org/2000/svg">
<path d="M0 513.998C0 342.71 0 171.422 0 0.0664062C719.764 0.0664062 1439.53 0.0664062 2160 0.0664062C2160 178.047 2160 356.098 2159.51 535.072C2159.01 535.995 2158.03 535.992 2158.01 535.056C2157.99 396.79 2157.97 259.46 2157.96 122.131C2157.96 87.4649 2157.98 52.7991 2157.93 18.1335C2157.92 14.3101 2157.46 10.4875 2157.21 6.67435C1979.08 6.67435 1802.24 6.67435 1623.97 6.67435C1623.97 11.5723 1623.97 15.795 1623.97 20.0177C1623.97 160.347 1623.97 300.677 1623.97 441.007C1623.97 444.007 1624.14 447.023 1623.88 450C1623.73 451.607 1622.85 453.149 1621.59 456.712C1620.63 453.327 1620.04 452.15 1620 450.951C1619.3 433.019 1618.2 415.086 1618.12 397.15C1617.87 345.485 1618.03 293.819 1618.03 242.154C1618.03 167.823 1618.04 93.4911 1618 19.1597C1617.99 15.0001 1617.5 10.8408 1617.2 5.96625C1611.71 5.96625 1607.41 5.96625 1603.1 5.96625C1453.44 5.96625 1303.78 5.96623 1154.12 5.96627C1134.45 5.96627 1114.78 5.92719 1095.12 6.00364C1091.64 6.01717 1088.16 6.51298 1084.03 6.83704C1084.03 12.3931 1084.03 16.6959 1084.03 20.9988C1084 190.661 1083.97 360.323 1083.3 529.988C1081.78 529.989 1080.91 529.988 1080.03 529.052C1079.99 358.166 1079.98 188.216 1079.96 18.2659C1079.96 15.9339 1079.97 13.5993 1079.86 11.2709C1079.82 10.2906 1079.52 9.31558 1079.27 8.35462C1079.2 8.06159 1078.93 7.80771 1078.71 7.56493C1078.49 7.31613 1078.23 7.10285 1077.7 6.59922C1076.75 6.4417 1075.45 6.03769 1074.15 6.03745C900.204 6.00516 726.255 6.00099 552.307 6.02458C551.001 6.02475 549.69 6.39908 548.392 6.65482C548.1 6.71237 547.84 6.98765 547.592 7.19516C547.337 7.40832 547.116 7.66123 545.97 8.80608C545.97 12.1758 545.97 16.4593 545.97 20.7429C545.97 154.37 546.052 287.998 545.883 421.625C545.858 441.884 544.673 462.141 543.257 482.105C538.28 478.457 540.12 473.764 540.117 469.691C540.015 319.741 540.032 169.791 540 19.8404C539.999 15.6211 539.648 11.4019 539.473 7.46931C529.159 5.27861 15.2484 5.4915 5.95451 7.83438C5.95451 176.312 5.95451 345.15 5.2102 513.99C2.97726 513.995 1.48863 513.996 0 513.998Z" fill="#242424"/>
<path d="M2158.03 535.994C2158.03 535.994 2159.01 535.997 2159.51 535.999C2160 615.375 2160 694.75 2160 775.063C2159.35 772.181 2158.13 768.364 2158.12 764.544C2157.99 695.563 2158 626.582 2157.98 557.601C2157.98 553.668 2157.98 549.735 2157.98 546.836C2156.7 545.57 2156.49 545.308 2156.23 545.109C2155.97 544.914 2155.68 544.683 2155.38 544.64C2153.74 544.405 2152.1 544.048 2150.46 544.048C1796.56 544.062 1442.66 544.102 1088.76 544.172C1087.8 544.172 1086.85 544.617 1084.71 545.146C1084.49 548.706 1084.04 552.546 1084.04 556.387C1083.98 620.702 1084 685.017 1083.92 749.333C1083.92 753.044 1084.8 757.017 1081.67 760.398C1079.35 748.765 1080.23 737.033 1080.07 725.373C1079.9 713.378 1080.03 701.38 1080.02 689.383C1080.02 677.387 1080.02 665.39 1080.01 653.393C1080.01 641.397 1080 629.4 1080 617.403C1080 605.407 1080 593.41 1079.99 581.413C1079.99 569.494 1079.99 557.575 1079.99 546.019C1071.64 543.616 558.623 543.115 546.767 545.332C546.518 547.94 546.028 550.807 546.008 553.677C545.921 566.673 546.06 579.671 545.893 592.665C545.854 595.695 547.348 599.503 542.642 601.622C537.657 596.323 540.596 589.787 540.131 583.955C539.629 577.663 540.015 571.301 540.015 564.969C540.014 558.67 540.015 552.37 540.015 546.798C538.999 545.825 538.765 545.589 538.517 545.367C538.273 545.149 538.045 544.838 537.757 544.758C536.801 544.494 535.821 544.13 534.85 544.13C360.9 544.079 186.949 544.055 12.9983 544.056C11.3572 544.056 9.71612 544.402 6.64825 544.746C5.29864 557.789 6.19355 570.991 6.03372 584.126C5.87153 597.454 5.9963 610.785 5.99156 624.114C5.98682 637.443 5.97733 650.773 5.21999 665.046C2.98004 665.993 1.49002 665.997 0 666C0 615.958 0 565.916 0 514.937C1.48863 513.998 2.97726 513.996 5.23318 514.923C6.6537 523.639 4.58452 531.669 7.71222 539.981C12.0459 539.981 16.0115 539.981 19.9771 539.981C188.206 539.982 356.435 539.952 524.664 540.084C532.042 540.089 538.862 539.856 544.497 534.281C546.722 541.237 551.899 539.969 556.415 539.969C727.263 539.985 898.111 539.985 1068.96 539.961C1072.2 539.961 1075.44 539.639 1079.28 539.436C1079.58 535.799 1079.81 532.894 1080.04 529.989C1080.91 529.99 1081.78 529.991 1083.32 530.847C1085.02 539.684 1085.02 539.693 1091.77 539.976C1093.1 540.032 1094.43 539.989 1095.76 539.989C1265.94 539.99 1436.12 539.977 1606.3 540.048C1612.04 540.05 1617.53 540.222 1621.52 531.549C1624.21 541.868 1630.8 539.962 1636.58 539.963C1806.1 539.995 1975.61 539.99 2145.12 539.983C2148.12 539.983 2151.2 540.292 2154.07 539.66C2155.58 539.326 2156.72 537.272 2158.03 535.994Z" fill="#202020"/>
<path d="M0 666.936C1.49002 665.996 2.98004 665.992 5.21385 665.98C5.96649 731.117 6.01623 796.262 5.87872 861.406C5.87078 865.165 8.32241 870.572 0.817624 871.949C1.19209e-07 803.957 0 735.915 0 666.936Z" fill="#171717"/>
<path d="M248.003 706.001C248.001 661.74 247.952 618.479 248.082 575.218C248.092 571.61 246.356 567.183 251.353 564.098C252.288 565.586 253.523 566.765 253.771 568.124C254.182 570.385 253.998 572.762 253.998 575.09C254 645.638 254.022 716.187 253.905 786.736C253.899 790.345 255.617 794.765 251.147 797.565C246.533 795.287 248.101 791.167 248.083 787.865C247.951 762.908 248.007 737.949 248.004 712.991C248.004 710.994 248.004 708.997 248.003 706.001Z" fill="#171717"/>
<path d="M831.998 654.001C831.997 626.712 831.941 600.422 832.065 574.133C832.08 570.819 830.527 566.705 835.622 564.141C836.456 565.959 837.66 567.525 837.84 569.202C838.194 572.493 837.997 575.846 837.997 579.173C837.996 648.391 838.022 717.609 837.9 786.826C837.894 790.412 839.693 794.88 834.97 797.602C830.341 794.826 832.115 790.382 832.1 786.78C831.952 750.508 832.004 714.235 832 677.963C831.999 670.309 831.999 662.655 831.998 654.001Z" fill="#171717"/>
<path d="M1236 635.999C1236.23 612.073 1236.44 589.148 1236.78 566.224C1236.79 565.64 1238.18 565.076 1239.6 563.992C1240.49 565.976 1241.74 567.563 1241.85 569.225C1242.16 573.864 1242.01 578.535 1242.01 583.193C1242 651.08 1242.03 718.967 1241.9 786.853C1241.89 790.427 1243.71 794.905 1239.01 797.557C1234.58 795.156 1236.09 791.075 1236.08 787.747C1235.97 756.466 1236.01 725.185 1236.01 693.904C1236.01 674.936 1236.01 655.967 1236 635.999Z" fill="#171717"/>
<path d="M158.006 657.999C158.005 629.383 157.96 601.766 158.058 574.15C158.07 570.801 156.724 566.78 162.162 563.602C162.891 566.61 163.863 568.88 163.921 571.173C164.121 579.154 164.01 587.142 164.009 595.128C164.004 658.346 163.996 721.564 163.989 784.782C163.989 788.676 163.989 792.57 163.989 796.464C163.234 796.732 162.479 796.999 161.724 797.266C160.555 795.759 158.72 794.393 158.367 792.715C157.761 789.837 158.022 786.763 158.021 783.772C158.006 742.181 158.008 700.59 158.006 657.999Z" fill="#171717"/>
<path d="M742.007 692.001C742.005 652.404 741.95 613.807 742.085 575.211C742.098 571.604 740.353 567.172 745.374 564.105C746.3 565.592 747.568 566.783 747.773 568.136C748.168 570.743 747.999 573.441 747.999 576.102C748.001 645.975 747.993 715.848 747.988 785.722C747.988 789.297 747.988 792.872 747.988 796.447C747.253 796.722 746.519 796.997 745.785 797.271C744.598 795.784 742.791 794.452 742.371 792.773C741.741 790.255 742.023 787.493 742.022 784.835C742.005 754.223 742.009 723.612 742.007 692.001Z" fill="#171717"/>
<path d="M1332 600.003C1332 666.133 1332 731.264 1332 796.395C1331.27 796.679 1330.54 796.962 1329.81 797.245C1328.62 795.784 1326.8 794.481 1326.38 792.825C1325.75 790.307 1326.02 787.545 1326.02 784.887C1326 715.015 1325.98 645.143 1326.06 575.272C1326.06 571.611 1324.63 567.318 1328.7 564.277C1329.78 565.071 1331.17 565.605 1331.19 566.186C1331.56 577.122 1331.76 588.063 1332 600.003Z" fill="#171717"/>
<path d="M657.99 771.963C657.99 780.785 657.99 788.613 657.99 796.442C657.229 796.606 656.468 796.769 655.707 796.933C654.597 795.226 652.97 793.648 652.504 791.78C651.874 789.253 652.032 786.503 652.031 783.849C652.008 714.27 651.986 644.692 652.068 575.114C652.073 571.481 650.57 567.138 654.654 564.426C659.402 566.367 657.915 570.206 657.941 573.222C658.083 589.866 658.009 606.513 658.007 623.158C658.002 672.429 657.996 721.7 657.99 771.963Z" fill="#171717"/>
<path d="M68.0149 759.995C68.0127 697.742 67.9771 636.488 68.0912 575.234C68.098 571.621 66.377 567.193 71.3709 564.102C72.3011 565.589 73.5719 566.777 73.7766 568.127C74.172 570.736 74.0037 573.436 74.0037 576.097C74.0035 646.007 73.9949 715.917 73.9878 785.826C73.9875 789.338 73.9878 792.849 73.9878 797.829C68.0823 794.692 68.0331 790.827 68.0268 786.961C68.0127 778.305 68.0175 769.65 68.0149 759.995Z" fill="#171717"/>
<path d="M927.753 778.922C926.968 785.504 930.653 792.219 924.846 796.909C923.867 796.628 923.496 796.607 923.24 796.425C922.99 796.245 922.696 795.902 922.695 795.63C922.444 721.7 922.215 647.77 921.997 573.84C921.991 571.844 921.993 569.834 922.225 567.858C922.333 566.936 922.96 566.056 923.444 565.21C923.568 564.992 924.039 564.973 925.233 564.551C926.031 565.736 927.503 567.023 927.775 568.528C928.242 571.114 927.991 573.836 927.991 576.5C927.993 637.14 927.999 697.78 927.969 758.42C927.966 764.965 927.745 771.51 927.753 778.922Z" fill="#171717"/>
<path d="M337.994 648.001C337.992 622.686 337.934 598.37 338.052 574.056C338.068 570.75 336.578 566.657 341.067 564.434C345.397 566.88 343.908 570.944 343.929 574.285C344.06 595.268 343.991 616.253 343.99 637.238C343.988 674.877 344.074 712.516 343.908 750.154C343.877 757.081 342.517 763.996 342.353 770.93C342.236 775.843 343.156 780.776 343.512 785.708C343.804 789.768 345.502 794.29 340.778 796.941C339.997 796.687 339.644 796.639 339.373 796.465C339.117 796.3 338.869 796.034 338.755 795.757C338.508 795.153 338.191 794.516 338.177 793.887C338.081 789.56 338.016 785.232 338.015 780.904C338 736.936 337.999 692.969 337.994 648.001Z" fill="#171717"/>
<path d="M1418.23 564.914C1423.52 566.268 1421.89 570.189 1421.92 573.184C1422.07 590.82 1421.99 608.457 1421.99 626.094C1421.99 666.028 1422.06 705.961 1421.91 745.893C1421.89 752.149 1420.63 758.391 1420.38 764.657C1420.22 768.581 1420.88 772.537 1421.14 776.481C1421.42 780.776 1422.04 785.094 1421.79 789.361C1421.64 791.946 1420.15 794.454 1419.25 796.997C1418.53 796.886 1417.81 796.775 1417.08 796.665C1416.73 794.586 1416.06 792.507 1416.06 790.428C1416 717.883 1415.99 645.338 1416.06 572.793C1416.06 570.25 1416.96 567.708 1418.23 564.914Z" fill="#171717"/>
<path d="M568.012 592.02C568.012 660.781 568.012 728.546 568.012 796.312C567.218 796.413 566.423 796.515 565.629 796.617C565.091 795.046 564.124 793.487 564.08 791.902C563.325 764.667 562.299 737.432 562.104 710.192C561.781 665.231 561.967 620.267 562.089 575.305C562.099 571.676 560.432 567.281 564.982 564.289C569.948 567.794 567.594 572.82 567.93 577.042C568.299 581.676 568.013 586.361 568.012 592.02Z" fill="#171717"/>
<path d="M1505.99 594.013C1506.23 584.063 1506.43 575.11 1506.81 566.164C1506.83 565.583 1508.23 565.061 1510.22 563.613C1510.93 566.7 1511.86 568.996 1511.91 571.312C1512.1 579.301 1511.99 587.297 1511.99 595.291C1511.99 628.596 1512.25 661.905 1511.91 695.207C1511.59 727.443 1510.66 759.674 1509.95 791.906C1509.91 793.421 1509.35 794.924 1508.87 797.263C1504.97 794.703 1506.08 791.462 1506.07 788.849C1505.96 770.198 1506 751.547 1506 732.896C1506 686.934 1505.99 640.972 1505.99 594.013Z" fill="#171717"/>
<path d="M1618.01 726C1618.01 696.678 1617.96 668.357 1618.07 640.036C1618.08 636.735 1616.58 632.636 1621.62 630.172C1622.44 631.677 1623.6 632.932 1623.79 634.32C1624.15 636.94 1623.99 639.636 1623.99 642.301C1623.99 702.942 1624.05 763.584 1623.89 824.224C1623.87 830.368 1622.53 836.507 1621.65 844.018C1616.72 840.088 1618.09 836.217 1618.08 832.955C1617.97 797.637 1618.01 762.318 1618.01 726Z" fill="#171717"/>
<path d="M428.001 728C427.996 676.438 427.953 625.875 428.064 575.313C428.072 571.686 426.442 567.318 431.212 564.066C432.208 565.564 433.555 566.718 433.731 568.029C434.126 570.975 433.985 573.998 433.985 576.99C433.992 620.234 434.049 663.479 433.91 706.723C433.891 712.645 432.622 718.554 432.411 724.487C432.212 730.095 432.582 735.729 432.836 741.346C432.909 742.977 433.765 744.597 433.712 746.204C433.204 761.438 432.599 776.668 431.953 791.897C431.888 793.414 431.363 794.911 431.076 796.301C430.157 796.301 429.799 796.379 429.5 796.278C429.234 796.188 428.838 795.903 428.835 795.7C428.537 773.467 428.27 751.233 428.001 728Z" fill="#171717"/>
<path d="M517.99 628.001C518.227 606.725 518.447 586.448 518.796 566.174C518.806 565.608 520.211 565.066 520.892 564.566C525.045 566.098 523.896 569.543 523.932 572.3C524.065 582.623 523.988 592.949 523.987 603.273C523.986 635.912 524.243 668.554 523.907 701.189C523.595 731.427 522.661 761.659 521.947 791.892C521.911 793.411 521.36 794.917 520.847 797.412C516.961 794.284 518.07 790.806 518.06 787.866C517.97 760.223 518.003 732.579 518 704.936C517.997 679.625 517.993 654.313 517.99 628.001Z" fill="#171717"/>
<path d="M1146.01 638C1146.25 613.393 1146.48 589.787 1146.83 566.182C1146.84 565.615 1148.24 565.069 1149.58 564.086C1150.45 565.673 1151.65 566.928 1151.81 568.304C1152.16 571.264 1152.01 574.286 1152.01 577.283C1152.01 646.557 1152 715.831 1151.98 785.106C1151.97 788.871 1151.77 792.637 1151.65 796.403C1150.88 796.459 1150.11 796.514 1149.33 796.57C1148.89 794.93 1148.44 793.293 1148.02 791.647C1147.94 791.334 1148.01 790.984 1148 790.651C1147.34 740.101 1146.67 689.55 1146.01 638Z" fill="#171717"/>
<path d="M1012 757.999C1012 696.385 1011.97 635.771 1012.05 575.156C1012.06 571.512 1010.56 567.174 1014.82 564.27C1019.67 567.13 1017.89 571.588 1017.9 575.193C1018.04 611.494 1018.25 647.799 1017.91 684.098C1017.59 719.664 1016.67 755.224 1015.96 790.786C1015.92 792.657 1015.42 794.519 1014.84 798.311C1010.11 790.707 1012.55 784.109 1012.11 777.975C1011.65 771.68 1012.01 765.327 1012 757.999Z" fill="#171717"/>
<path d="M545.992 728C545.989 760.593 545.985 792.185 545.985 823.778C545.985 829.016 546.252 834.318 542.452 838.573C541.882 838.441 541.518 838.432 541.245 838.271C540.993 838.121 540.663 837.809 540.662 837.567C540.423 774.084 540.209 710.6 540.002 647.117C539.997 645.455 539.959 643.778 540.168 642.138C540.286 641.204 540.838 640.312 541.275 639.441C541.394 639.203 541.791 639.084 542.082 638.958C542.383 638.828 542.71 638.756 543.285 638.578C547.432 640.769 545.909 644.859 545.925 648.185C546.047 674.456 545.992 700.728 545.992 728Z" fill="#171717"/>
<path d="M472.009 576.374C472.12 569.049 472.12 569.049 475.279 563.922C476.317 565.873 477.539 567.322 477.84 568.942C478.259 571.2 478.013 573.586 478.012 575.918C478.008 645.875 477.999 715.831 477.991 785.788C477.99 789.298 477.991 792.808 477.991 798.268C472.758 794.014 474.076 790.187 474.063 786.969C473.948 758.654 475.194 730.274 473.698 702.037C471.495 660.453 472.433 618.89 472.009 576.374Z" fill="#171717"/>
<path d="M1600.01 746C1599.89 762.978 1599.79 778.956 1599.61 794.934C1599.6 795.395 1598.83 795.847 1597.68 797.128C1597.02 794.996 1596.13 793.404 1596.09 791.794C1595.94 784.137 1596.01 776.475 1596.01 768.815C1596 704.203 1595.96 639.591 1596.08 574.98C1596.09 571.459 1594.17 566.921 1599.97 563.988C1600.72 566.401 1601.88 568.382 1601.89 570.367C1602 601.007 1603.54 631.753 1601.49 662.257C1599.64 689.895 1600.97 717.436 1600.01 746Z" fill="#171717"/>
<path d="M1057.98 686.114C1054.8 648.278 1056.31 611.34 1056.07 574.435C1056.04 571.058 1054.84 567.115 1059.29 563.957C1060.31 565.871 1061.48 567.314 1061.84 568.938C1062.27 570.847 1062.01 572.913 1062.01 574.911C1062.01 645.522 1062 716.134 1061.97 786.746C1061.97 789.948 1061.69 793.151 1061.47 797.734C1056.72 794.068 1058.07 790.23 1058.06 787.018C1057.96 753.711 1057.99 720.404 1057.98 686.114Z" fill="#171717"/>
<path d="M1556.01 654C1556 702.105 1555.99 749.21 1555.97 796.314C1550.84 793.912 1552.07 790.124 1552.06 786.884C1551.96 754.249 1551.99 721.613 1551.98 688.977C1551.98 672.66 1553.4 656.181 1551.6 640.064C1549.18 618.427 1550.77 596.874 1550.07 575.302C1549.95 571.6 1549.03 567.32 1554.2 564.34C1557.45 571.833 1555.66 579.087 1555.94 586.067C1556.26 593.713 1556.01 601.382 1556.01 609.042C1556.01 616.368 1556.01 623.694 1556.01 631.021C1556.01 638.347 1556.01 645.674 1556.01 654Z" fill="#171717"/>
<path d="M967.98 678.001C967.978 666.677 968.168 656.348 967.937 646.029C967.404 622.119 966.633 598.215 966.039 574.307C965.908 569.009 966.062 569.005 969.299 564.086C970.265 565.574 971.563 566.735 971.769 568.066C972.174 570.673 972.013 573.375 972.013 576.037C972.011 645.977 972.001 715.917 971.991 785.856C971.991 789.35 971.991 792.844 971.991 798.48C966.818 793.94 968.074 790.142 968.064 786.908C967.961 750.94 967.988 714.97 967.98 678.001Z" fill="#171717"/>
<path d="M607.984 586.089C607.984 578.591 607.984 572.077 607.984 564.129C613.514 566.997 614.052 570.444 613.944 574.023C613.401 591.948 612.75 609.87 612.159 627.793C612.06 630.789 612.032 633.789 612.031 636.787C612.014 686.439 612.007 736.09 611.999 785.741C611.998 789.267 611.999 792.792 611.999 796.317C611.249 796.426 610.499 796.535 609.75 796.644C609.177 795.099 608.219 793.581 608.11 792.004C607.857 788.355 608.009 784.678 608.009 781.013C607.999 716.366 607.992 651.72 607.984 586.089Z" fill="#171717"/>
<path d="M24.0041 765.991C24.0041 698.525 24.0041 632.055 24.0041 564.051C29.5117 567.039 30.0691 570.476 29.943 574.062C29.4065 589.321 28.7449 604.575 28.16 619.833C28.0451 622.828 28.0325 625.828 28.0316 628.826C28.016 681.14 28.0096 733.454 28.0013 785.768C28.0007 789.296 28.0012 792.824 26.9188 796.411C22.3524 792.144 24.4316 786.805 24.0858 781.978C23.7295 777.005 24.005 771.987 24.0041 765.991Z" fill="#171717"/>
<path d="M1101.99 626.001C1101.99 605.204 1101.99 585.407 1101.99 563.5C1107.72 572.069 1109.19 582.629 1107.51 592.56C1106.73 597.11 1106.1 601.751 1106.09 606.352C1105.99 666.251 1106.01 726.15 1105.98 786.049C1105.98 789.501 1105.73 792.952 1105.6 796.302C1104.01 796.302 1103.64 796.395 1103.36 796.274C1103.09 796.162 1102.75 795.823 1102.75 795.582C1102.48 739.388 1102.23 683.195 1101.99 626.001Z" fill="#171717"/>
<path d="M882.016 604.002C882.016 668.772 882.016 732.543 882.016 796.314C881.223 796.415 880.431 796.516 879.638 796.618C879.101 795.048 878.283 793.512 878.093 791.901C877.823 789.601 878.006 787.246 878.006 784.915C877.994 715.64 877.984 646.364 877.973 577.089C877.973 573.261 877.973 569.433 879.111 565.566C883.853 571.283 881.497 577.875 881.923 584.025C882.358 590.323 882.017 596.674 882.016 604.002Z" fill="#171717"/>
<path d="M114.002 747.999C114.001 686.546 114.001 626.092 114.001 565.639C114.769 565.53 115.536 565.421 116.303 565.312C116.871 566.866 117.703 568.381 117.941 569.983C118.231 571.94 118.03 573.97 118.03 575.968C118.019 645.91 118.007 715.852 117.995 785.794C117.995 789.302 117.995 792.81 117.995 796.301C116.254 796.301 115.902 796.368 115.594 796.28C115.324 796.204 114.893 795.958 114.89 795.779C114.571 780.186 114.288 764.592 114.002 747.999Z" fill="#171717"/>
<path d="M383.978 637.999C384.088 613.693 384.19 590.387 384.357 567.082C384.36 566.601 385.101 566.126 386.209 564.793C386.929 566.911 387.744 568.453 387.934 570.069C388.204 572.369 388.02 574.724 388.02 577.055C388.012 646.331 388.003 715.607 387.994 784.883C387.993 788.705 387.994 792.528 387.036 796.416C382.845 793.904 384.076 790.119 384.064 786.876C383.958 757.235 383.995 727.592 383.99 697.95C383.986 678.3 383.982 658.649 383.978 637.999Z" fill="#171717"/>
<path d="M298.015 634C298.006 688.772 297.997 742.544 297.988 796.316C297.195 796.415 296.403 796.514 295.61 796.613C295.082 795.037 294.251 793.49 294.093 791.877C293.833 789.237 294.005 786.555 294.005 783.891C293.994 714.948 293.979 646.005 293.988 577.062C293.988 573.23 294.181 569.397 294.318 564.32C299.124 567.163 297.943 570.455 297.958 573.05C298.07 593.033 298.017 613.017 298.015 634Z" fill="#171717"/>
<path d="M702.009 692C701.938 727.441 702.137 761.886 701.87 796.323C701.1 796.417 700.329 796.511 699.559 796.605C699.047 795.016 698.151 793.441 698.093 791.835C697.901 786.513 698.006 781.18 698.005 775.851C697.995 709.573 697.982 643.294 697.992 577.016C697.993 573.201 698.191 569.387 698.351 563.617C703.168 568.063 701.967 571.844 701.973 575.096C702.055 613.731 702.016 652.365 702.009 692Z" fill="#171717"/>
<path d="M787.998 736.001C787.998 678.547 787.998 622.093 787.998 565.64C788.769 565.532 789.54 565.424 790.31 565.316C790.874 566.873 791.733 568.393 791.931 569.995C792.214 572.292 792.021 574.649 792.021 576.98C792.013 646.256 792.004 715.533 791.995 784.809C791.995 788.652 791.995 792.495 791.995 796.339C791.082 796.447 790.168 796.555 789.255 796.663C788.839 794.428 788.076 792.195 788.063 789.957C787.96 772.305 788.001 754.653 787.998 736.001Z" fill="#171717"/>
<path d="M1462.17 567.68C1463.28 566.679 1464.26 566.474 1465.25 566.27C1465.51 568.879 1465.99 571.488 1465.99 574.097C1466.02 645.299 1466.01 716.502 1465.97 787.704C1465.97 790.587 1465.62 793.47 1463.8 796.652C1463.21 795.122 1462.44 793.633 1462.09 792.051C1461.8 790.782 1462.01 789.402 1462.01 788.071C1462.02 714.873 1462.03 641.675 1462.17 567.68Z" fill="#171717"/>
<path d="M1372 767.987C1372 699.873 1372 632.756 1372 565.64C1372.77 565.531 1373.53 565.422 1374.29 565.312C1374.86 566.866 1375.69 568.38 1375.93 569.982C1376.22 571.939 1376.02 573.969 1376.02 575.967C1376.01 645.911 1376 715.855 1375.99 785.799C1375.99 789.319 1375.99 792.839 1375.99 796.359C1375.2 796.404 1374.4 796.449 1373.6 796.495C1370.52 792.481 1372.4 787.474 1372.08 782.968C1371.74 778.329 1372 773.648 1372 767.987Z" fill="#171717"/>
<path d="M1282.18 567.681C1283.29 566.68 1284.27 566.475 1285.26 566.27C1285.51 568.879 1285.99 571.488 1285.99 574.097C1286.02 645.3 1286.01 716.502 1285.97 787.705C1285.97 790.594 1285.62 793.482 1283.8 796.652C1283.21 795.123 1282.44 793.634 1282.09 792.053C1281.8 790.784 1282.01 789.404 1282.01 788.073C1282.02 714.874 1282.03 641.676 1282.18 567.681Z" fill="#171717"/>
<path d="M1192 746.001C1192 685.214 1192 625.427 1192 565.64C1192.77 565.531 1193.54 565.422 1194.3 565.312C1194.87 566.866 1195.7 568.38 1195.94 569.982C1196.23 571.939 1196.03 573.969 1196.03 575.967C1196.02 645.909 1196.01 715.852 1196 785.794C1195.99 789.302 1196 792.81 1194.88 796.39C1190.37 791.757 1192.44 786.121 1192.09 780.967C1191.71 775.332 1192.01 769.649 1192 763.987C1192 758.325 1192 752.663 1192 746.001Z" fill="#171717"/>
<path d="M207.995 777.879C207.994 784.698 207.994 790.541 207.994 796.383C207.209 796.462 206.423 796.54 205.637 796.619C205.1 795.049 204.281 793.512 204.092 791.902C203.821 789.601 204.006 787.246 204.005 784.914C203.994 715.63 203.98 646.346 203.988 577.061C203.989 573.232 204.183 569.404 204.287 565.575C204.986 565.494 205.686 565.413 206.385 565.332C206.925 566.905 207.875 568.463 207.93 570.052C208.126 575.708 208.022 581.375 208.021 587.038C208.013 650.326 208.004 713.615 207.995 777.879Z" fill="#171717"/>
<path d="M1942.67 716.598C1954.36 696.059 1965.68 676.16 1977.05 656.289C1986.77 639.301 1996.53 622.338 2006.3 605.379C2008.15 602.178 2009.09 597.73 2016.15 598.815C2001.86 623.585 1987.61 647.242 1974.4 671.468C1958.62 700.401 1936.48 736.844 1929.88 741.61C1931.77 731.327 1938.54 724.995 1942.67 716.598Z" fill="#171717"/>
<path d="M1840.45 719.608C1844.43 727.271 1847.97 734.341 1851.43 741.456C1851.53 741.665 1850.68 742.335 1849.4 743.781C1821 697.051 1794.52 649.64 1766.84 602.953C1766.3 602.047 1766.77 600.544 1766.77 597.398C1769.42 599.876 1771.3 600.997 1772.29 602.649C1781.16 617.486 1789.94 632.376 1798.62 647.327C1812.47 671.195 1826.22 695.121 1840.45 719.608Z" fill="#171717"/>
<path d="M1729.97 715.995C1760.87 733.948 1791.1 751.587 1821.33 769.225C1821.09 769.909 1820.85 770.592 1820.61 771.276C1818.67 770.967 1816.44 771.167 1814.82 770.265C1804.1 764.278 1793.54 758.017 1782.88 751.917C1761.85 739.879 1740.79 727.905 1719.76 715.869C1706.51 708.284 1693.26 700.69 1680.1 692.945C1678.43 691.961 1677.32 690.038 1676.59 687.676C1686.9 689.656 1694.86 695.99 1703.54 700.812C1712.21 705.626 1720.73 710.712 1729.97 715.995Z" fill="#171717"/>
<path d="M2092.01 697.988C2058.58 717.323 2025.84 736.393 1993.02 755.33C1984.38 760.315 1975.52 764.93 1966.71 769.604C1965.12 770.445 1963.25 770.743 1960.74 771.534C1961.22 769.578 1961.14 768.207 1961.68 767.894C2008.43 740.727 2055.22 713.643 2102.23 686.43C2102.64 692.105 2102.64 692.105 2092.01 697.988Z" fill="#171717"/>
<path d="M1892.02 642.001C1892.01 672.115 1892.03 701.23 1891.03 730.42C1886.84 727.924 1888.07 724.139 1888.06 720.897C1887.96 687.268 1887.99 653.64 1887.99 620.012C1887.98 605.029 1887.97 590.046 1888 575.063C1888.01 571.911 1888.22 568.76 1888.38 564.312C1893.11 567.205 1891.96 570.478 1891.97 573.079C1892.07 595.719 1892.03 618.361 1892.02 642.001Z" fill="#171717"/>
<path d="M1623.94 554.023C1623.44 557.893 1622.91 560.981 1622.1 565.779C1616.76 559.164 1617.4 554.057 1620.53 546.426C1622.25 549.879 1623.09 551.559 1623.94 554.023Z" fill="#202020"/>
<path d="M545.37 622.832C544.384 625.329 543.628 627.097 542.234 630.358C539.491 623.838 538.69 619.115 542.519 614.336C547.044 616.043 545.704 619.284 545.37 622.832Z" fill="#202020"/>
<path d="M2158.01 535.056C2156.72 537.271 2155.58 539.325 2154.07 539.659C2151.2 540.291 2148.12 539.982 2145.12 539.982C1975.61 539.989 1806.1 539.994 1636.58 539.962C1630.8 539.961 1624.21 541.867 1621.52 531.548C1617.53 540.221 1612.04 540.049 1606.3 540.047C1436.12 539.976 1265.94 539.989 1095.76 539.988C1094.43 539.988 1093.1 540.031 1091.77 539.975C1085.02 539.692 1085.02 539.683 1083.97 530.843C1083.97 360.324 1084 190.662 1084.03 20.9996C1084.03 16.6967 1084.03 12.3938 1084.03 6.83779C1088.16 6.51373 1091.64 6.01792 1095.12 6.00439C1114.78 5.92794 1134.45 5.96702 1154.12 5.96702C1303.78 5.96698 1453.44 5.967 1603.1 5.967C1607.41 5.967 1611.71 5.967 1617.2 5.967C1617.5 10.8416 1617.99 15.0009 1618 19.1605C1618.04 93.4919 1618.03 167.823 1618.03 242.155C1618.03 293.82 1617.87 345.486 1618.12 397.15C1618.2 415.087 1619.3 433.019 1620 450.951C1620.04 452.15 1620.63 453.328 1621.59 456.713C1622.85 453.149 1623.73 451.608 1623.88 450.001C1624.14 447.023 1623.97 444.007 1623.97 441.008C1623.97 300.678 1623.97 160.348 1623.97 20.0185C1623.97 15.7958 1623.97 11.5731 1623.97 6.6751C1802.24 6.6751 1979.08 6.6751 2157.21 6.6751C2157.46 10.4883 2157.92 14.3109 2157.93 18.1342C2157.98 52.7999 2157.96 87.4657 2157.96 122.131C2157.97 259.461 2157.98 396.79 2158.01 535.056ZM2000.63 48.3275C1975.22 35.1956 1947.9 28.3263 1919.83 24.3279C1914.5 23.5698 1908.38 22.2568 1903.29 26.823C1911.76 28.6705 1920.29 29.2719 1928.68 30.702C1937.18 32.1493 1945.62 34.1079 1953.92 36.4116C1962.23 38.7158 1970.46 41.3969 1978.5 44.516C1986.55 47.6407 1994.48 51.1789 2002.14 55.1478C2009.8 59.1136 2017.29 63.509 2024.44 68.3216C2031.59 73.128 2038.4 78.4844 2045.05 83.9702C2051.44 89.2449 2057.7 94.7376 2063.54 100.606C2069.63 106.711 2075.39 113.183 2080.84 119.859C2086.29 126.531 2091.58 133.402 2096.21 140.652C2100.86 147.917 2104.82 155.645 2108.67 163.377C2112.52 171.11 2116.18 178.969 2119.31 187.012C2122.44 195.062 2125.29 203.288 2127.4 211.655C2129.5 219.989 2130.24 228.658 2132.12 237.059C2133.92 245.11 2132.95 253.723 2136.02 262.805C2139.95 257.076 2140.4 255.867 2139.8 251.758C2138.64 243.899 2137.44 236.042 2136.09 228.215C2128.07 181.835 2107.78 141.243 2076.82 106.141C2055.75 82.2442 2030.69 63.1084 2000.63 48.3275ZM1310.73 31.8023C1319.72 28.6576 1330.08 31.3108 1340.74 25.0198C1336.29 24.4994 1334.01 23.7533 1331.89 24.0631C1316.5 26.3106 1300.73 27.267 1285.86 31.437C1234.54 45.8302 1191.49 73.3826 1157.74 115.09C1134.81 143.431 1118.16 174.836 1110.01 210.456C1106.91 224.001 1104.62 237.74 1102.31 251.45C1101.78 254.64 1100.65 258.637 1105.93 262.086C1106.75 258.519 1107.76 255.869 1107.9 253.173C1108.74 237.183 1112.3 221.706 1116.15 206.247C1120.85 187.365 1129.5 170.191 1138.36 153.059C1146.84 136.689 1157.87 122.184 1170.29 108.722C1188.21 89.3101 1208.32 72.5725 1231.45 59.6098C1255.74 46.0001 1281.57 36.7357 1310.73 31.8023ZM1398.51 517.852C1409.11 515.108 1419.97 513.11 1430.26 509.491C1475.38 493.615 1513.9 468.149 1544.46 430.809C1569.82 399.83 1586.97 365.044 1595.41 326.071C1597.99 314.156 1598.61 301.806 1599.9 289.633C1600.05 288.233 1598.77 286.683 1597.48 283.571C1596.54 286.685 1596.01 287.889 1595.83 289.143C1594.4 299.301 1593.69 309.607 1591.54 319.607C1582.3 362.652 1563.92 401.388 1534.47 434.301C1518.04 452.663 1499.61 468.813 1478.07 481.401C1444.26 501.162 1408.43 513.882 1369.12 516.079C1366.84 516.206 1364.61 517.145 1361.36 517.957C1365.75 523.706 1370.25 521.928 1374.22 521.446C1381.77 520.528 1389.27 519.157 1398.51 517.852ZM1746.64 476.362C1788.11 504.928 1857.43 527.845 1878.97 519.922C1878.07 516.044 1874.93 516.403 1872.04 515.983C1860.26 514.271 1848.46 512.647 1836.74 510.559C1807.45 505.342 1781.16 492.646 1756.37 476.848C1735.22 463.361 1717.33 446.104 1701.39 426.64C1670.37 388.765 1652.26 345.759 1647.85 296.97C1647.49 292.967 1646.11 289.058 1645.2 285.105C1637.26 331.33 1672 425.646 1746.64 476.362ZM1183.39 457.643C1184.5 458.38 1185.72 458.99 1186.7 459.872C1211.2 482.058 1239.42 497.68 1270.56 508.597C1290.47 515.576 1311.06 518.716 1331.72 521.75C1334.41 522.145 1337.86 523.084 1340.23 516.99C1330.91 515.944 1321.98 515.451 1313.25 513.886C1304.12 512.249 1294.97 510.408 1286.05 507.903C1277.11 505.394 1268.29 502.301 1259.68 498.824C1251.05 495.344 1242.54 491.467 1234.37 487.036C1226.2 482.608 1218.23 477.687 1210.72 472.23C1203.23 466.784 1196.21 460.636 1189.37 454.369C1182.56 448.13 1175.96 441.607 1169.77 434.755C1163.55 427.877 1157.62 420.684 1152.18 413.179C1146.75 405.668 1141.66 397.829 1137.18 389.715C1132.7 381.584 1128.79 373.079 1125.29 364.473C1121.78 355.87 1118.66 347.057 1116.14 338.121C1113.61 329.199 1112.22 319.963 1109.99 310.95C1107.84 302.254 1109.19 292.918 1106.38 284.011C1100.58 286.222 1101.85 290.142 1102.19 293.063C1103.37 302.927 1104.56 312.835 1106.63 322.538C1117.84 375.138 1143.45 419.719 1183.39 457.643ZM1835.45 34.1213C1849.85 31.8281 1864.25 29.535 1878.66 27.2419C1873.22 24.0426 1865.23 23.2531 1859.31 24.2543C1827.72 29.599 1797.33 38.1829 1769.14 54.1981C1739.56 71.0083 1714.35 92.4351 1693.49 119.293C1677.23 140.217 1664.79 163.017 1655.6 187.853C1648.87 206.042 1644.86 224.758 1642.3 243.83C1641.57 249.311 1640.88 255.265 1644.04 262.771C1645.19 259.493 1645.75 258.379 1645.96 257.203C1648.58 242.558 1650.99 227.876 1653.75 213.26C1657.74 192.156 1666.37 172.719 1676.76 154.167C1691.97 127.004 1710.62 102.346 1735.73 83.5462C1750.31 72.6347 1765.57 62.3689 1781.53 53.6581C1797.84 44.7602 1815.61 38.7808 1835.45 34.1213ZM2130.16 319.161C2126.01 333.477 2122.3 347.945 2117.58 362.069C2111.74 379.511 2102.84 395.629 2092.11 410.441C2080.07 427.058 2066.91 442.666 2051.18 456.33C2028 476.468 2002.43 491.958 1973.69 502.311C1952.38 509.99 1930.49 515.237 1907.71 516.069C1905.05 516.166 1902.02 516.182 1903.19 521.279C1911.91 523.088 1920.67 520.327 1929.23 518.999C1950.91 515.631 1971.79 509.438 1992.05 500.559C2009.6 492.871 2025.63 482.96 2040.87 471.75C2051.26 464.111 2060.98 455.421 2070.23 446.416C2076.6 440.216 2081.74 432.736 2087.3 425.719C2100.56 408.96 2111.53 390.814 2119.97 371.148C2130.38 346.86 2136.29 321.397 2139.61 295.288C2140.08 291.659 2141.42 287.42 2137.62 284.505C2132.91 285.67 2134.39 289.222 2134.01 291.921C2132.82 300.434 2131.67 308.953 2130.16 319.161ZM1530.01 105.052C1534.66 110.672 1539.44 116.192 1543.94 121.932C1556.5 137.951 1566.77 155.347 1575.06 173.946C1585.28 196.87 1591.99 220.671 1594.12 245.744C1594.55 250.77 1595.9 255.717 1596.83 260.701C1597.52 260.674 1598.2 260.647 1598.89 260.62C1599.26 258.576 1600.17 256.47 1599.93 254.498C1598.42 241.687 1597.61 228.688 1594.76 216.162C1589.67 193.77 1581.34 172.505 1570.25 152.231C1552.07 119.009 1527.57 91.6144 1497.01 69.4538C1462.95 44.7546 1424.57 30.895 1383.32 24.4708C1376.83 23.4593 1369.94 22.9488 1363.38 26.2633C1394.27 30.9646 1424.57 36.6976 1452.98 50.2538C1481.5 63.8627 1507.09 81.2811 1530.01 105.052ZM1618.64 466.033C1620.69 468.149 1622.09 467.053 1622.92 464.948C1623.15 464.366 1622.3 463.361 1621.95 462.549C1620.78 463.297 1619.61 464.044 1618.64 466.033Z" fill="#0A0A0A"/>
<path d="M543.977 533.695C538.862 539.855 532.042 540.088 524.663 540.082C356.435 539.951 188.206 539.981 19.9769 539.98C16.0113 539.98 12.0457 539.98 7.71206 539.98C4.58437 531.668 6.65354 523.638 5.97734 514.919C5.95436 345.15 5.95436 176.313 5.95436 7.83484C15.2482 5.49196 529.159 5.27907 539.473 7.46976C539.648 11.4023 539.999 15.6215 540 19.8408C540.032 169.791 540.015 319.741 540.117 469.691C540.12 473.764 538.28 478.458 543.247 482.977C543.78 490.404 544.913 497.11 543.037 502.829C539.528 513.52 540.6 523.505 543.977 533.695ZM198.05 294.46C201.89 307.456 208.474 319.121 217.942 328.559C237.926 348.479 263.208 353.981 289.841 349.222C314.755 344.771 333.842 329.532 344.355 306.469C361.565 268.715 350.256 229.928 316.984 206.942C291.182 189.117 254.956 188.954 227.165 209.029C203.175 226.359 188.534 260.585 198.05 294.46Z" fill="#0A0A0A"/>
<path d="M544.497 534.281C540.601 523.506 539.529 513.521 543.037 502.83C544.914 497.112 543.781 490.406 544.015 483.273C544.673 462.143 545.858 441.886 545.884 421.627C546.052 288 545.971 154.372 545.971 20.745C545.971 16.4615 545.971 12.1779 545.971 8.80823C547.117 7.66338 547.338 7.41046 547.592 7.1973C547.84 6.9898 548.101 6.71451 548.392 6.65696C549.69 6.40122 551.001 6.0269 552.307 6.02672C726.255 6.00314 900.204 6.00731 1074.15 6.0396C1075.45 6.03984 1076.75 6.44384 1077.7 6.60137C1078.23 7.10499 1078.49 7.31827 1078.71 7.56708C1078.93 7.80985 1079.2 8.06374 1079.27 8.35677C1079.52 9.31773 1079.82 10.2928 1079.86 11.273C1079.97 13.6015 1079.96 15.936 1079.96 18.2681C1079.98 188.218 1079.99 358.168 1080.03 529.054C1079.81 532.895 1079.58 535.8 1079.28 539.436C1075.44 539.64 1072.2 539.961 1068.96 539.961C898.111 539.986 727.263 539.986 556.415 539.97C551.899 539.969 546.722 541.237 544.497 534.281ZM568.012 254.242C568.013 182.66 568.016 111.078 568.012 39.4965C568.012 36.5007 568.24 33.4612 567.797 30.5274C567.572 29.0309 566.089 27.7241 565.175 26.3316C564.446 26.4262 563.718 26.5207 562.989 26.6153C562.67 30.0076 562.075 33.3997 562.073 36.7922C562.019 108.374 562.032 179.956 562.034 251.538C562.034 253.202 561.812 254.92 562.148 256.517C562.51 258.238 563.407 259.846 565.008 263.846C566.569 259.755 567.281 257.888 568.012 254.242ZM568.005 506.681C568.009 436.781 568.014 366.88 568.01 296.98C568.01 293.986 568.148 290.961 567.755 288.013C567.58 286.706 566.241 285.553 565.267 284.083C560.807 287.001 562.089 290.974 562.086 294.34C562.017 366.238 562.033 438.135 562.054 510.033C562.055 512.353 562.064 514.717 562.513 516.972C562.712 517.969 564.022 518.744 565.033 519.842C569.468 516.539 567.418 512.212 568.005 506.681ZM1011.99 299.231C1011.99 368.457 1011.99 437.684 1012.01 506.91C1012.01 509.904 1011.86 512.928 1012.24 515.878C1012.42 517.207 1013.72 518.389 1014.67 519.895C1019.54 516.7 1017.87 512.304 1017.87 508.684C1017.98 437.46 1017.96 366.237 1017.95 295.013C1017.95 292.686 1018.13 290.307 1017.71 288.049C1017.46 286.714 1016.19 285.568 1015.09 283.886C1010.27 288.097 1012.68 293.054 1011.99 299.231ZM747.997 41.2246C747.124 36.3494 750.134 30.7004 744.811 25.7851C740.736 29.557 742.08 34.1051 742.075 38.0576C741.993 108.621 742.014 179.184 742.02 249.747C742.02 252.409 741.853 255.105 742.228 257.719C742.426 259.095 743.629 260.326 744.504 261.843C749.733 258.911 747.9 254.428 747.906 250.858C748.028 181.627 747.997 112.395 747.997 41.2246ZM652.025 99.0004C652.025 119.301 652.025 139.601 652.025 159.902C652.025 190.519 651.977 221.136 652.093 251.753C652.105 255.079 650.582 259.166 655.035 261.553C659.73 258.899 657.912 254.42 657.918 250.846C658.039 181.625 658.009 112.403 658.005 43.1819C658.005 39.1887 658.173 35.1786 657.847 31.2105C657.709 29.5396 656.492 27.9575 655.599 25.9644C654.191 27.0606 652.805 27.63 652.796 28.2196C652.461 51.1454 652.251 74.073 652.025 99.0004ZM653.426 518.764C654.862 517.988 657.243 517.474 657.544 516.384C658.234 513.893 657.982 511.121 657.982 508.462C658.001 437.532 658.004 366.602 658.004 295.671C658.004 293.341 658.26 290.948 657.81 288.702C657.498 287.144 656.176 285.788 655.306 284.342C654.567 284.419 653.828 284.495 653.089 284.571C652.734 288.264 652.073 291.956 652.07 295.649C652.011 366.58 652.024 437.51 652.051 508.44C652.052 511.426 652.33 514.411 653.426 518.764ZM927.981 399C927.981 364.058 928.023 329.115 927.913 294.173C927.902 290.849 929.432 286.749 924.934 284.399C920.289 287.078 922.086 291.546 922.081 295.132C921.966 366.348 921.998 437.564 922.007 508.78C922.007 511.109 921.827 513.482 922.219 515.75C922.458 517.13 923.635 518.347 924.519 519.858C929.674 516.873 927.862 512.409 927.877 508.823C928.031 472.882 927.977 436.941 927.981 399ZM832 299.231C832.003 368.461 832.005 437.692 832.016 506.922C832.016 509.916 831.873 512.941 832.258 515.89C832.43 517.214 833.743 518.389 834.641 519.792C839.376 517.061 837.907 513.006 837.911 509.671C837.998 437.778 837.984 365.885 837.968 293.992C837.968 291.671 837.963 289.308 837.52 287.051C837.321 286.036 836.037 285.235 834.958 284.012C830.275 288.092 832.685 293.052 832 299.231ZM927.981 199C927.981 173.375 927.981 147.75 927.981 122.124C927.981 93.5038 928.03 64.883 927.913 36.2629C927.899 32.9251 929.377 28.8655 924.465 26.0739C920.725 29.5504 922.057 34.0903 922.052 38.0348C921.971 108.588 921.992 179.141 921.998 249.694C921.998 252.355 921.834 255.049 922.196 257.666C922.388 259.047 923.551 260.295 924.428 261.88C925.761 260.898 927.164 260.354 927.174 259.786C927.524 240.192 927.743 220.596 927.981 199ZM836.53 260.804C837.015 257.26 837.918 253.716 837.922 250.172C838.005 179.229 837.987 108.286 837.972 37.3427C837.971 34.685 837.977 32.0015 837.609 29.3822C837.458 28.3073 836.321 27.3709 835.471 26.1367C829.977 29.2753 832.108 34.1191 832.1 37.9544C831.963 107.565 831.999 177.176 832.003 246.787C832.003 250.117 831.735 253.49 832.191 256.76C832.417 258.374 834.009 259.798 836.53 260.804ZM1062.01 506.681C1062.01 436.783 1062.02 366.884 1062.01 296.986C1062.01 293.992 1062.15 290.968 1061.76 288.019C1061.59 286.711 1060.25 285.557 1059.28 284.089C1054.81 287.001 1056.1 290.975 1056.09 294.342C1056.02 366.237 1056.04 438.133 1056.06 510.028C1056.06 512.348 1056.07 514.713 1056.52 516.968C1056.72 517.966 1058.03 518.742 1059.04 519.841C1063.47 516.538 1061.42 512.212 1062.01 506.681ZM742.015 399C742.018 435.607 741.964 472.214 742.115 508.82C742.13 512.407 740.323 516.869 745.207 519.709C749.399 516.754 747.919 512.432 747.924 508.785C748.012 438.234 747.995 367.684 747.992 297.133C747.992 294.139 748.146 291.116 747.775 288.164C747.604 286.808 746.332 285.59 745.481 284.179C740.567 286.745 742.094 290.845 742.083 294.17C741.973 328.446 742.015 362.723 742.015 399ZM1062 252.28C1062 181.43 1062 110.579 1062 39.7285C1062 37.0675 1062.2 34.3816 1061.89 31.7551C1061.71 30.2012 1060.72 28.7414 1060.09 27.2393C1058.48 29.4598 1057.98 31.3709 1057.98 33.2804C1058.2 108.735 1058.46 184.189 1058.75 259.643C1058.75 259.875 1059.11 260.202 1059.38 260.31C1059.66 260.426 1060.03 260.336 1061.07 260.336C1061.37 258.321 1061.68 256.184 1062 252.28ZM608 123C608 131.995 608 140.989 608 149.984C608 183.63 607.962 217.276 608.061 250.922C608.071 254.153 606.799 257.961 611.685 262.155C611.839 256.547 612.035 252.708 612.036 248.869C612.054 178.912 612.049 108.955 612.048 38.9984C612.048 36.6666 612.232 34.3107 611.955 32.0111C611.761 30.3999 610.928 28.8657 610.38 27.297C609.587 27.3965 608.794 27.496 608 27.5955C608 58.7305 608 89.8655 608 123ZM967.954 465C967.956 470.997 967.959 476.994 967.961 482.99C967.963 489.32 967.679 495.667 968.05 501.975C968.373 507.465 966.361 513.401 969.616 518.466C970.408 518.428 971.2 518.389 971.993 518.351C971.993 514.509 971.993 510.667 971.993 506.824C971.999 436.864 972.006 366.903 972.011 296.942C972.011 294.61 972.202 292.253 971.917 289.955C971.719 288.354 970.859 286.835 970.295 285.28C969.514 285.388 968.733 285.496 967.952 285.604C967.952 344.736 967.952 403.868 967.954 465ZM882.008 500.856C882.016 433.553 882.025 366.251 882.032 298.948C882.032 295.949 882.2 292.934 881.931 289.959C881.787 288.363 880.878 286.836 880.314 285.279C879.528 285.378 878.741 285.477 877.955 285.577C877.955 289.414 877.955 293.25 877.955 297.087C877.965 367.055 877.975 437.023 877.987 506.991C877.987 509.324 877.798 511.681 878.084 513.979C878.283 515.578 879.144 517.095 879.709 518.649C880.475 518.551 881.241 518.452 882.008 518.354C882.008 513.169 882.008 507.983 882.008 500.856ZM697.979 77.0005C697.979 116.311 697.978 155.621 697.979 194.931C697.979 214.253 697.928 233.575 698.046 252.896C698.062 255.491 696.882 258.784 701.678 261.625C701.818 256.539 702.014 252.708 702.015 248.877C702.034 178.918 702.029 108.96 702.028 39.001C702.028 36.6691 702.214 34.3138 701.942 32.0132C701.751 30.4 700.928 28.8614 700.388 27.2895C699.642 27.3805 698.897 27.4715 698.151 27.5625C698.094 43.3751 698.036 59.1878 697.979 77.0005ZM1012.01 187C1012.01 208.989 1011.96 230.977 1012.08 252.965C1012.1 255.534 1010.81 258.887 1016.07 261.67C1016.07 256.865 1016.07 253.357 1016.07 249.849C1016.07 179.22 1016.07 108.591 1016.07 37.962C1016.07 35.9632 1016.26 33.9334 1015.98 31.975C1015.74 30.3674 1014.92 28.8447 1014.37 27.2844C1013.58 27.3912 1012.8 27.498 1012.01 27.6047C1012.01 80.07 1012.01 132.535 1012.01 187ZM972.012 91.0004C971.737 70.0667 971.464 49.1328 971.159 28.1995C971.156 27.9996 970.755 27.7199 970.489 27.6321C970.188 27.5331 969.83 27.6093 968.265 27.6093C968.16 31.3464 967.96 35.1736 967.958 39.0009C967.94 108.967 967.944 178.932 967.945 248.898C967.945 251.23 967.76 253.586 968.031 255.887C968.221 257.505 969.04 259.05 969.759 261.158C970.874 259.841 971.624 259.369 971.626 258.895C971.791 203.597 971.9 148.299 972.012 91.0004ZM787.967 317.006C787.971 371.978 787.974 426.949 787.98 481.92C787.981 492.248 787.917 502.577 788.064 512.903C788.091 514.818 788.983 516.721 789.476 518.63C790.214 518.557 790.953 518.483 791.691 518.409C791.797 514.575 791.996 510.741 791.997 506.907C792.023 436.943 792.026 366.98 792.032 297.017C792.032 294.684 792.214 292.329 791.942 290.028C791.75 288.413 790.931 286.872 790.392 285.298C789.596 285.382 788.8 285.467 788.004 285.551C787.992 295.371 787.979 305.191 787.967 317.006ZM877.965 65.0016C877.965 117.64 877.964 170.278 877.966 222.916C877.966 233.576 877.901 244.238 878.045 254.897C878.071 256.809 878.975 258.708 879.474 260.614C880.218 260.534 880.963 260.455 881.707 260.376C881.812 256.547 882.007 252.718 882.008 248.889C882.027 178.927 882.022 108.965 882.021 39.0035C882.021 36.6715 882.205 34.3163 881.933 32.0154C881.743 30.4017 880.924 28.8621 880.386 27.2893C879.59 27.377 878.794 27.4648 877.999 27.5525C877.988 39.3691 877.976 51.1857 877.965 65.0016ZM697.971 291.921C698.17 367.076 698.366 442.231 698.628 517.385C698.63 517.701 699.57 518.014 700.576 518.644C703.07 515.085 701.961 511.049 701.965 507.357C702.049 437.163 702.035 366.969 702.036 296.774C702.036 294.113 702.179 291.431 701.882 288.801C701.741 287.544 700.724 286.386 699.213 283.458C698.552 287.074 698.268 288.631 697.971 291.921ZM607.987 387C607.987 390.665 607.986 394.329 607.987 397.993C607.995 434.969 607.968 471.945 608.073 508.92C608.082 512.149 606.808 515.956 612.029 520.439C612.029 514.855 612.029 511.35 612.029 507.845C612.039 437.225 612.049 366.605 612.057 295.985C612.057 293.986 612.251 291.957 611.966 289.998C611.733 288.388 610.923 286.86 610.368 285.296C609.574 285.396 608.781 285.497 607.987 285.598C607.987 318.732 607.987 351.866 607.987 387ZM787.979 165C787.979 193.651 787.934 222.301 788.042 250.951C788.054 254.175 786.755 257.998 792.022 262.344C792.022 256.517 792.022 252.673 792.022 248.83C792.022 178.87 792.022 108.911 792.021 38.9512C792.021 36.6193 792.211 34.2625 791.931 31.964C791.735 30.3592 790.885 28.8342 790.328 27.2736C789.545 27.3792 788.762 27.4847 787.979 27.5903C787.979 72.727 787.979 117.864 787.979 165Z" fill="#0A0A0A"/>
<path d="M2001.29 48.6744C2030.69 63.1101 2055.75 82.2459 2076.82 106.143C2107.78 141.245 2128.07 181.837 2136.09 228.217C2137.44 236.044 2138.64 243.901 2139.8 251.76C2140.4 255.868 2139.95 257.077 2136.02 262.806C2132.95 253.725 2133.92 245.112 2132.12 237.061C2130.24 228.66 2129.5 219.99 2127.4 211.656C2125.29 203.29 2122.44 195.063 2119.31 187.013C2116.18 178.971 2112.52 171.112 2108.67 163.379C2104.82 155.647 2100.86 147.919 2096.21 140.654C2091.58 133.404 2086.29 126.533 2080.84 119.861C2075.39 113.184 2069.63 106.713 2063.55 100.607C2057.7 94.7393 2051.44 89.2466 2045.05 83.9719C2038.4 78.4861 2031.59 73.1297 2024.44 68.3233C2017.29 63.5106 2009.8 59.1153 2002.14 55.1495C1994.48 51.1806 1986.55 47.6424 1978.5 44.5177C1970.46 41.3986 1962.23 38.7175 1953.92 36.4133C1945.62 34.1096 1937.18 32.151 1928.68 30.7037C1920.29 29.2736 1911.76 28.6722 1903.29 26.8247C1908.38 22.2585 1914.5 23.5714 1919.83 24.3296C1947.9 28.328 1975.22 35.1973 2001.29 48.6744Z" fill="#242424"/>
<path d="M1309.86 31.8761C1281.57 36.7376 1255.74 46.002 1231.45 59.6118C1208.32 72.5745 1188.21 89.312 1170.29 108.723C1157.87 122.186 1146.84 136.69 1138.36 153.061C1129.5 170.193 1120.85 187.367 1116.15 206.249C1112.3 221.708 1108.74 237.185 1107.9 253.175C1107.76 255.871 1106.75 258.521 1105.93 262.088C1100.65 258.639 1101.78 254.642 1102.31 251.452C1104.62 237.742 1106.91 224.003 1110.01 210.458C1118.16 174.838 1134.81 143.433 1157.74 115.092C1191.49 73.3845 1234.54 45.8321 1285.86 31.4389C1300.72 27.2689 1316.5 26.3126 1331.89 24.0651C1334.01 23.7553 1336.29 24.5013 1340.74 25.0218C1330.07 31.3128 1319.72 28.6596 1309.86 31.8761Z" fill="#242424"/>
<path d="M1397.65 517.912C1389.27 519.156 1381.77 520.527 1374.22 521.445C1370.25 521.927 1365.75 523.705 1361.36 517.957C1364.61 517.144 1366.84 516.206 1369.12 516.079C1408.43 513.881 1444.26 501.161 1478.07 481.401C1499.61 468.812 1518.04 452.663 1534.47 434.3C1563.92 401.387 1582.3 362.651 1591.54 319.606C1593.69 309.607 1594.4 299.3 1595.83 289.143C1596.01 287.888 1596.54 286.684 1597.48 283.57C1598.77 286.682 1600.05 288.233 1599.9 289.632C1598.61 301.806 1598 314.156 1595.41 326.07C1586.97 365.043 1569.82 399.829 1544.46 430.808C1513.9 468.149 1475.38 493.615 1430.26 509.49C1419.97 513.11 1409.11 515.107 1397.65 517.912Z" fill="#202020"/>
<path d="M1746.01 476.012C1672 425.646 1637.26 331.33 1645.2 285.105C1646.11 289.058 1647.49 292.968 1647.85 296.97C1652.26 345.76 1670.37 388.766 1701.39 426.641C1717.33 446.105 1735.22 463.362 1756.37 476.849C1781.16 492.646 1807.45 505.342 1836.74 510.56C1848.46 512.648 1860.26 514.272 1872.04 515.984C1874.93 516.404 1878.07 516.044 1878.97 519.923C1857.43 527.846 1788.11 504.929 1746.01 476.012Z" fill="#202020"/>
<path d="M1182.8 457.253C1143.46 419.719 1117.84 375.139 1106.63 322.539C1104.56 312.835 1103.37 302.927 1102.19 293.063C1101.85 290.143 1100.58 286.223 1106.38 284.012C1109.19 292.918 1107.84 302.255 1109.99 310.951C1112.22 319.963 1113.61 329.199 1116.14 338.122C1118.66 347.058 1121.78 355.871 1125.29 364.473C1128.79 373.079 1132.7 381.584 1137.18 389.715C1141.66 397.83 1146.75 405.669 1152.18 413.179C1157.62 420.684 1163.55 427.877 1169.77 434.756C1175.96 441.607 1182.56 448.13 1189.37 454.37C1196.21 460.636 1203.23 466.784 1210.73 472.23C1218.23 477.688 1226.2 482.609 1234.37 487.037C1242.54 491.467 1251.05 495.344 1259.68 498.824C1268.29 502.301 1277.11 505.394 1286.05 507.903C1294.97 510.409 1304.12 512.249 1313.25 513.887C1321.98 515.451 1330.91 515.944 1340.23 516.991C1337.86 523.084 1334.41 522.145 1331.72 521.751C1311.06 518.717 1290.47 515.576 1270.56 508.597C1239.42 497.68 1211.2 482.058 1186.7 459.873C1185.72 458.991 1184.5 458.38 1182.8 457.253Z" fill="#202020"/>
<path d="M1834.62 34.267C1815.61 38.7814 1797.84 44.7607 1781.53 53.6587C1765.57 62.3695 1750.31 72.6352 1735.73 83.5468C1710.62 102.347 1691.97 127.005 1676.76 154.168C1666.37 172.72 1657.74 192.156 1653.75 213.261C1650.99 227.877 1648.58 242.559 1645.96 257.203C1645.75 258.38 1645.19 259.494 1644.04 262.772C1640.88 255.266 1641.57 249.312 1642.3 243.831C1644.86 224.759 1648.87 206.042 1655.6 187.854C1664.79 163.017 1677.23 140.217 1693.49 119.294C1714.35 92.4357 1739.56 71.0088 1769.14 54.1987C1797.33 38.1835 1827.72 29.5996 1859.31 24.2548C1865.23 23.2537 1873.22 24.0431 1878.66 27.2425C1864.25 29.5356 1849.85 31.8287 1834.62 34.267Z" fill="#242424"/>
<path d="M2130.33 318.318C2131.67 308.956 2132.82 300.437 2134.01 291.924C2134.39 289.224 2132.91 285.673 2137.62 284.508C2141.42 287.423 2140.08 291.661 2139.61 295.291C2136.29 321.4 2130.38 346.863 2119.97 371.151C2111.53 390.817 2100.56 408.963 2087.3 425.722C2081.74 432.738 2076.6 440.219 2070.23 446.419C2060.98 455.423 2051.26 464.114 2040.87 471.753C2025.63 482.962 2009.6 492.873 1992.05 500.562C1971.79 509.441 1950.91 515.634 1929.23 519.001C1920.67 520.33 1911.91 523.091 1903.19 521.282C1902.02 516.185 1905.05 516.169 1907.71 516.072C1930.49 515.24 1952.38 509.992 1973.69 502.314C2002.43 491.961 2028 476.471 2051.18 456.333C2066.91 442.669 2080.07 427.061 2092.11 410.444C2102.84 395.632 2111.74 379.514 2117.58 362.072C2122.3 347.947 2126.01 333.479 2130.33 318.318Z" fill="#202020"/>
<path d="M1529.51 104.552C1507.09 81.2844 1481.5 63.8659 1452.98 50.257C1424.57 36.7009 1394.27 30.9678 1363.38 26.2666C1369.94 22.952 1376.83 23.4625 1383.32 24.474C1424.57 30.8983 1462.95 44.7578 1497.01 69.457C1527.57 91.6176 1552.07 119.012 1570.25 152.234C1581.34 172.509 1589.67 193.773 1594.76 216.166C1597.61 228.691 1598.42 241.69 1599.93 254.501C1600.17 256.473 1599.26 258.579 1598.89 260.623C1598.2 260.65 1597.52 260.677 1596.83 260.704C1595.9 255.721 1594.55 250.773 1594.12 245.747C1591.99 220.674 1585.28 196.873 1575.06 173.95C1566.77 155.35 1556.5 137.955 1543.94 121.935C1539.44 116.195 1534.66 110.675 1529.51 104.552Z" fill="#242424"/>
<path d="M1618.54 465.413C1619.61 464.045 1620.78 463.298 1621.95 462.551C1622.3 463.362 1623.15 464.368 1622.92 464.95C1622.09 467.054 1620.69 468.15 1618.54 465.413Z" fill="#242424"/>
<path d="M197.933 293.646C188.535 260.586 203.176 226.36 227.166 209.031C254.956 188.956 291.183 189.119 316.985 206.944C350.256 229.929 361.565 268.717 344.355 306.471C333.842 329.534 314.756 344.773 289.841 349.224C263.208 353.982 237.926 348.48 217.942 328.56C208.474 319.123 201.89 307.457 197.933 293.646Z" fill="#272727"/>
<path d="M568.002 255.132C567.281 257.888 566.568 259.755 565.008 263.846C563.406 259.846 562.509 258.238 562.148 256.517C561.812 254.92 562.034 253.203 562.034 251.538C562.032 179.956 562.019 108.374 562.072 36.7926C562.075 33.4001 562.67 30.008 562.989 26.6157C563.717 26.5212 564.446 26.4266 565.174 26.332C566.089 27.7246 567.571 29.0314 567.797 30.5278C568.24 33.4617 568.011 36.5012 568.012 39.4969C568.015 111.079 568.013 182.661 568.002 255.132Z" fill="#202020"/>
<path d="M568.004 507.623C567.418 512.211 569.467 516.538 565.032 519.841C564.022 518.743 562.711 517.968 562.513 516.971C562.063 514.716 562.054 512.352 562.053 510.031C562.032 438.134 562.017 366.236 562.086 294.339C562.089 290.973 560.806 287 565.267 284.082C566.241 285.552 567.579 286.705 567.754 288.012C568.147 290.96 568.009 293.985 568.009 296.979C568.014 366.879 568.008 436.779 568.004 507.623Z" fill="#202020"/>
<path d="M1011.99 298.27C1012.68 293.051 1010.27 288.094 1015.08 283.883C1016.19 285.565 1017.46 286.71 1017.71 288.046C1018.13 290.304 1017.95 292.682 1017.95 295.01C1017.96 366.233 1017.98 437.457 1017.87 508.68C1017.87 512.301 1019.54 516.696 1014.67 519.892C1013.72 518.386 1012.42 517.204 1012.24 515.875C1011.86 512.925 1012.01 509.901 1012 506.907C1011.99 437.681 1011.99 368.454 1011.99 298.27Z" fill="#202020"/>
<path d="M747.996 42.194C747.996 112.395 748.027 181.627 747.906 250.858C747.9 254.428 749.733 258.911 744.504 261.843C743.628 260.326 742.426 259.095 742.228 257.719C741.853 255.105 742.02 252.409 742.019 249.747C742.014 179.184 741.993 108.621 742.075 38.0576C742.079 34.1051 740.736 29.557 744.81 25.7852C750.134 30.7004 747.124 36.3494 747.996 42.194Z" fill="#202020"/>
<path d="M652.024 98.0009C652.25 74.0735 652.46 51.1459 652.795 28.22C652.804 27.6305 654.19 27.061 655.598 25.9648C656.491 27.958 657.709 29.5401 657.846 31.2109C658.172 35.1791 658.004 39.1892 658.004 43.1824C658.008 112.404 658.038 181.625 657.917 250.846C657.911 254.421 659.73 258.9 655.035 261.553C650.581 259.167 652.105 255.08 652.092 251.754C651.977 221.137 652.024 190.52 652.024 159.902C652.024 139.602 652.024 119.301 652.024 98.0009Z" fill="#202020"/>
<path d="M652.953 518.081C652.33 514.412 652.052 511.427 652.051 508.442C652.024 437.511 652.011 366.581 652.07 295.651C652.073 291.957 652.734 288.265 653.089 284.572C653.828 284.496 654.567 284.42 655.306 284.344C656.177 285.79 657.498 287.145 657.81 288.703C658.26 290.949 658.004 293.342 658.004 295.673C658.004 366.603 658.001 437.533 657.982 508.464C657.982 511.122 658.234 513.894 657.544 516.385C657.243 517.475 654.862 517.989 652.953 518.081Z" fill="#202020"/>
<path d="M927.981 400C927.976 436.941 928.03 472.882 927.877 508.822C927.862 512.408 929.674 516.873 924.519 519.858C923.635 518.347 922.458 517.129 922.219 515.749C921.827 513.481 922.007 511.108 922.007 508.78C921.997 437.564 921.966 366.348 922.08 295.132C922.086 291.545 920.289 287.078 924.934 284.398C929.432 286.749 927.902 290.848 927.913 294.173C928.022 329.115 927.981 364.058 927.981 400Z" fill="#202020"/>
<path d="M832 298.274C832.684 293.052 830.274 288.092 834.958 284.012C836.036 285.235 837.321 286.036 837.52 287.051C837.963 289.308 837.967 291.671 837.968 293.992C837.984 365.885 837.998 437.778 837.91 509.671C837.906 513.006 839.375 517.061 834.641 519.792C833.743 518.389 832.43 517.214 832.257 515.89C831.872 512.94 832.016 509.916 832.016 506.922C832.005 437.692 832.003 368.461 832 298.274Z" fill="#202020"/>
<path d="M927.981 200.001C927.743 220.597 927.524 240.193 927.174 259.786C927.163 260.355 925.761 260.898 924.428 261.88C923.55 260.295 922.387 259.048 922.196 257.666C921.834 255.049 921.997 252.356 921.997 249.694C921.992 179.141 921.971 108.588 922.052 38.0351C922.056 34.0906 920.725 29.5508 924.465 26.0742C929.376 28.8659 927.899 32.9255 927.913 36.2632C928.029 64.8833 927.98 93.5041 927.981 122.125C927.981 147.75 927.981 173.375 927.981 200.001Z" fill="#202020"/>
<path d="M835.756 261.056C834.008 259.798 832.416 258.374 832.191 256.76C831.735 253.49 832.002 250.117 832.002 246.787C831.999 177.176 831.962 107.565 832.1 37.9544C832.107 34.1191 829.976 29.2753 835.471 26.1367C836.321 27.3709 837.457 28.3073 837.608 29.3822C837.977 32.0015 837.971 34.685 837.971 37.3426C837.986 108.286 838.004 179.229 837.921 250.172C837.917 253.716 837.014 257.26 835.756 261.056Z" fill="#202020"/>
<path d="M1062.01 507.621C1061.42 512.209 1063.47 516.536 1059.04 519.839C1058.03 518.739 1056.72 517.963 1056.52 516.965C1056.07 514.71 1056.06 512.346 1056.06 510.026C1056.04 438.13 1056.02 366.235 1056.09 294.339C1056.1 290.972 1054.81 286.998 1059.28 284.086C1060.25 285.554 1061.59 286.708 1061.76 288.017C1062.15 290.965 1062.01 293.99 1062.01 296.983C1062.02 366.882 1062.01 436.78 1062.01 507.621Z" fill="#202020"/>
<path d="M742.014 398.001C742.015 362.724 741.972 328.447 742.083 294.17C742.094 290.845 740.567 286.745 745.48 284.18C746.332 285.591 747.603 286.808 747.774 288.164C748.146 291.117 747.991 294.14 747.991 297.134C747.994 367.685 748.012 438.235 747.923 508.786C747.919 512.433 749.399 516.755 745.206 519.71C740.323 516.87 742.129 512.407 742.115 508.82C741.964 472.214 742.018 435.608 742.014 398.001Z" fill="#202020"/>
<path d="M1062 253.163C1061.68 256.183 1061.37 258.32 1061.07 260.335C1060.03 260.335 1059.66 260.425 1059.38 260.309C1059.11 260.201 1058.75 259.874 1058.75 259.642C1058.46 184.188 1058.2 108.734 1057.98 33.2794C1057.98 31.3699 1058.48 29.4588 1060.09 27.2383C1060.72 28.7404 1061.71 30.2002 1061.89 31.7541C1062.19 34.3806 1062 37.0665 1062 39.7275C1062 110.578 1062 181.429 1062 253.163Z" fill="#242424"/>
<path d="M608 122C608 89.8653 608 58.7303 608 27.5954C608.793 27.4959 609.587 27.3964 610.38 27.2969C610.928 28.8655 611.761 30.3998 611.955 32.011C612.231 34.3105 612.048 36.6665 612.048 38.9983C612.049 108.955 612.054 178.912 612.036 248.869C612.034 252.708 611.839 256.547 611.685 262.155C606.799 257.96 608.071 254.153 608.061 250.921C607.962 217.276 608 183.63 608 149.984C608 140.989 608 131.995 608 122Z" fill="#272727"/>
<path d="M967.953 464.002C967.952 403.87 967.952 344.738 967.952 285.605C968.733 285.497 969.514 285.389 970.295 285.281C970.859 286.837 971.719 288.356 971.917 289.956C972.202 292.254 972.012 294.612 972.011 296.944C972.006 366.904 972 436.865 971.993 506.826C971.993 510.668 971.993 514.51 971.993 518.353C971.201 518.391 970.408 518.429 969.616 518.467C966.361 513.402 968.373 507.467 968.05 501.976C967.679 495.668 967.963 489.322 967.961 482.992C967.959 476.995 967.956 470.999 967.953 464.002Z" fill="#242424"/>
<path d="M882.008 501.826C882.008 507.982 882.008 513.168 882.008 518.353C881.241 518.451 880.475 518.55 879.709 518.648C879.144 517.094 878.283 515.577 878.084 513.978C877.798 511.68 877.987 509.322 877.987 506.99C877.975 437.022 877.965 367.054 877.955 297.086C877.955 293.249 877.955 289.412 877.955 285.576C878.741 285.476 879.528 285.377 880.314 285.277C880.878 286.835 881.787 288.362 881.931 289.958C882.2 292.933 882.032 295.948 882.032 298.947C882.025 366.249 882.016 433.552 882.008 501.826Z" fill="#242424"/>
<path d="M697.979 76C698.036 59.1874 698.094 43.3747 698.151 27.562C698.897 27.471 699.642 27.38 700.388 27.2891C700.928 28.861 701.751 30.3995 701.942 32.0128C702.214 34.3133 702.028 36.6686 702.028 39.0005C702.029 108.959 702.034 178.918 702.015 248.876C702.014 252.707 701.818 256.538 701.678 261.624C696.882 258.784 698.062 255.491 698.046 252.896C697.928 233.574 697.979 214.252 697.979 194.93C697.978 155.62 697.979 116.31 697.979 76Z" fill="#272727"/>
<path d="M1012.01 185.997C1012.01 132.532 1012.01 80.0668 1012.01 27.6016C1012.8 27.4948 1013.58 27.388 1014.37 27.2812C1014.92 28.8416 1015.74 30.3643 1015.98 31.9719C1016.26 33.9302 1016.07 35.96 1016.07 37.9589C1016.07 108.588 1016.07 179.217 1016.07 249.846C1016.07 253.354 1016.07 256.862 1016.07 261.667C1010.81 258.884 1012.1 255.531 1012.08 252.962C1011.96 230.974 1012.01 208.986 1012.01 185.997Z" fill="#242424"/>
<path d="M972.012 91.9973C971.9 148.295 971.79 203.594 971.625 258.892C971.624 259.366 970.873 259.838 969.758 261.154C969.039 259.047 968.221 257.502 968.03 255.883C967.759 253.582 967.945 251.227 967.945 248.895C967.944 178.929 967.939 108.963 967.958 38.9978C967.959 35.1705 968.159 31.3432 968.264 27.6062C969.829 27.6062 970.188 27.5299 970.488 27.6289C970.754 27.7167 971.156 27.9964 971.159 28.1963C971.464 49.1297 971.737 70.0635 972.012 91.9973Z" fill="#242424"/>
<path d="M787.967 316.008C787.979 305.19 787.991 295.37 788.003 285.55C788.8 285.465 789.596 285.381 790.392 285.297C790.931 286.871 791.75 288.412 791.941 290.027C792.214 292.328 792.032 294.683 792.032 297.015C792.026 366.979 792.023 436.942 791.997 506.906C791.995 510.74 791.797 514.574 791.691 518.408C790.952 518.482 790.214 518.555 789.476 518.629C788.983 516.72 788.091 514.817 788.064 512.902C787.917 502.576 787.981 492.247 787.98 481.919C787.974 426.948 787.971 371.976 787.967 316.008Z" fill="#242424"/>
<path d="M877.965 64.0017C877.976 51.1854 877.988 39.3688 877.999 27.5522C878.794 27.4645 879.59 27.3768 880.386 27.2891C880.924 28.8618 881.743 30.4014 881.933 32.0152C882.205 34.316 882.021 36.6712 882.021 39.0033C882.022 108.965 882.027 178.927 882.008 248.889C882.007 252.718 881.812 256.547 881.707 260.376C880.963 260.455 880.218 260.534 879.474 260.613C878.975 258.708 878.071 256.808 878.045 254.897C877.901 244.238 877.966 233.576 877.966 222.915C877.964 170.277 877.965 117.639 877.965 64.0017Z" fill="#272727"/>
<path d="M697.978 291.053C698.268 288.63 698.552 287.074 699.213 283.457C700.724 286.385 701.741 287.543 701.882 288.8C702.179 291.43 702.036 294.113 702.036 296.774C702.035 366.968 702.049 437.162 701.965 507.357C701.961 511.048 703.07 515.085 700.576 518.643C699.57 518.013 698.63 517.7 698.628 517.384C698.366 442.23 698.17 367.075 697.978 291.053Z" fill="#242424"/>
<path d="M607.986 386.002C607.986 351.867 607.986 318.733 607.986 285.599C608.78 285.498 609.574 285.397 610.368 285.297C610.922 286.861 611.732 288.389 611.966 289.999C612.25 291.958 612.056 293.987 612.056 295.986C612.048 366.606 612.038 437.226 612.029 507.846C612.028 511.351 612.029 514.856 612.029 520.44C606.808 515.958 608.081 512.15 608.072 508.921C607.967 471.946 607.994 434.97 607.986 397.994C607.985 394.33 607.986 390.666 607.986 386.002Z" fill="#242424"/>
<path d="M787.978 164C787.978 117.864 787.978 72.7268 787.978 27.5901C788.761 27.4846 789.544 27.379 790.327 27.2734C790.885 28.8341 791.734 30.359 791.93 31.9638C792.211 34.2623 792.02 36.6191 792.02 38.951C792.021 108.911 792.021 178.87 792.021 248.829C792.021 252.673 792.021 256.517 792.021 262.344C786.755 257.997 788.054 254.175 788.041 250.95C787.933 222.301 787.978 193.65 787.978 164Z" fill="#272727"/>
</svg>
