<svg id="visual" viewBox="0 0 900 600" width="900" height="600" xmlns="http://www.w3.org/2000/svg" xmlns:xlink="http://www.w3.org/1999/xlink" version="1.1"><path d="M0 301L129 301L129 249L257 249L257 345L386 345L386 219L514 219L514 340L643 340L643 220L771 220L771 318L900 318L900 278L900 601L900 601L771 601L771 601L643 601L643 601L514 601L514 601L386 601L386 601L257 601L257 601L129 601L129 601L0 601Z" fill="#161616"></path><path d="M0 385L129 385L129 308L257 308L257 321L386 321L386 403L514 403L514 353L643 353L643 419L771 419L771 321L900 321L900 365L900 601L900 601L771 601L771 601L643 601L643 601L514 601L514 601L386 601L386 601L257 601L257 601L129 601L129 601L0 601Z" fill="#111111"></path><path d="M0 538L129 538L129 435L257 435L257 439L386 439L386 462L514 462L514 529L643 529L643 495L771 495L771 504L900 504L900 526L900 601L900 601L771 601L771 601L643 601L643 601L514 601L514 601L386 601L386 601L257 601L257 601L129 601L129 601L0 601Z" fill="#0a0a0a"></path></svg>